<?xml version="1.0" encoding="utf-8"?>
<!-- Generator: Adobe Illustrator 25.0.1, SVG Export Plug-In . SVG Version: 6.00 Build 0)  -->
<svg version="1.1" id="Capa_1" xmlns="http://www.w3.org/2000/svg" xmlns:xlink="http://www.w3.org/1999/xlink" x="0px" y="0px"
	 viewBox="0 0 682.7 304.9" style="enable-background:new 0 0 682.7 304.9;" xml:space="preserve">
<style type="text/css">
	.st0{fill:none;}
	.st1{opacity:0.46;}
	.st2{fill:url(#SVGID_1_);}
	.st3{fill:url(#SVGID_2_);}
	.st4{fill:url(#SVGID_3_);}
	.st5{fill:url(#SVGID_4_);}
	.st6{fill:url(#SVGID_5_);}
	.st7{fill:url(#SVGID_6_);}
	.st8{fill:url(#SVGID_7_);stroke:#FFFFFF;stroke-miterlimit:10;}
	.st9{fill:url(#SVGID_8_);stroke:#FFFFFF;stroke-miterlimit:10;}
	.st10{fill:url(#SVGID_9_);stroke:#FFFFFF;stroke-miterlimit:10;}
	.st11{fill:url(#SVGID_10_);stroke:#FFFFFF;stroke-miterlimit:10;}
	.st12{fill:url(#SVGID_11_);stroke:#FFFFFF;stroke-miterlimit:10;}
	.st13{fill:url(#SVGID_12_);stroke:#FFFFFF;stroke-miterlimit:10;}
	.st14{fill:url(#SVGID_13_);stroke:#FFFFFF;stroke-miterlimit:10;}
	.st15{fill:url(#SVGID_14_);stroke:#000000;stroke-width:0.25;stroke-miterlimit:10;}
	.st16{fill:url(#SVGID_15_);}
	.st17{fill:#663300;}
</style>
<rect x="9.2" y="277.5" class="st0" width="278" height="83.9"/>
<g class="st1">
</g>
<linearGradient id="SVGID_1_" gradientUnits="userSpaceOnUse" x1="333.8813" y1="251.3408" x2="333.8813" y2="251.3408" gradientTransform="matrix(0.9985 5.450000e-02 5.450000e-02 -0.9985 -28.3405 328.7889)">
	<stop  offset="0" style="stop-color:#FFFFFF"/>
	<stop  offset="0.1357" style="stop-color:#999999"/>
</linearGradient>
<path class="st2" d="M318.7,96"/>
<linearGradient id="SVGID_2_" gradientUnits="userSpaceOnUse" x1="-53.8711" y1="242.0444" x2="-53.8711" y2="242.0444" gradientTransform="matrix(1 0 0 -1 0 296.8889)">
	<stop  offset="0" style="stop-color:#4A017D"/>
	<stop  offset="0.4397" style="stop-color:#0F2C90"/>
	<stop  offset="1" style="stop-color:#01A0C6"/>
</linearGradient>
<path class="st3" d="M-53.9,54.8"/>
<linearGradient id="SVGID_3_" gradientUnits="userSpaceOnUse" x1="-123.5611" y1="262.2845" x2="-123.5611" y2="262.2845" gradientTransform="matrix(1 0 0 -1 0 296.8889)">
	<stop  offset="0" style="stop-color:#4A017D"/>
	<stop  offset="0.4397" style="stop-color:#0F2C90"/>
	<stop  offset="1" style="stop-color:#01A0C6"/>
</linearGradient>
<path class="st4" d="M-123.6,34.6"/>
<linearGradient id="SVGID_4_" gradientUnits="userSpaceOnUse" x1="-132.8611" y1="227.9044" x2="-132.8611" y2="227.9044" gradientTransform="matrix(1 0 0 -1 0 296.8889)">
	<stop  offset="0" style="stop-color:#4A017D"/>
	<stop  offset="0.4397" style="stop-color:#0F2C90"/>
	<stop  offset="1" style="stop-color:#01A0C6"/>
</linearGradient>
<path class="st5" d="M-132.9,69"/>
<linearGradient id="SVGID_5_" gradientUnits="userSpaceOnUse" x1="-63.2211" y1="200.2744" x2="-63.2211" y2="200.2744" gradientTransform="matrix(1 0 0 -1 0 296.8889)">
	<stop  offset="0" style="stop-color:#4A017D"/>
	<stop  offset="0.4397" style="stop-color:#0F2C90"/>
	<stop  offset="1" style="stop-color:#01A0C6"/>
</linearGradient>
<path class="st6" d="M-63.2,96.6"/>
<linearGradient id="SVGID_6_" gradientUnits="userSpaceOnUse" x1="-26.7519" y1="254.8272" x2="-26.7519" y2="254.8272" gradientTransform="matrix(1 0 0 -1 0 296.8889)">
	<stop  offset="0" style="stop-color:#4A017D"/>
	<stop  offset="0.4397" style="stop-color:#0F2C90"/>
	<stop  offset="1" style="stop-color:#01A0C6"/>
</linearGradient>
<path class="st7" d="M-26.8,42.1"/>
<g>
	<linearGradient id="SVGID_7_" gradientUnits="userSpaceOnUse" x1="159.9837" y1="164.8723" x2="159.9837" y2="164.8723">
		<stop  offset="0" style="stop-color:#B0E688"/>
		<stop  offset="0.2402" style="stop-color:#4C8933"/>
		<stop  offset="0.3359" style="stop-color:#5E7233"/>
		<stop  offset="0.4516" style="stop-color:#6F5D33"/>
		<stop  offset="0.5651" style="stop-color:#795033"/>
		<stop  offset="0.6732" style="stop-color:#7C4C33"/>
	</linearGradient>
	<path class="st8" d="M160,164.9"/>
	<linearGradient id="SVGID_8_" gradientUnits="userSpaceOnUse" x1="15.5437" y1="150.2222" x2="292.2354" y2="150.2222">
		<stop  offset="0" style="stop-color:#B0E688"/>
		<stop  offset="0.2402" style="stop-color:#4C8933"/>
		<stop  offset="0.3359" style="stop-color:#5E7233"/>
		<stop  offset="0.4516" style="stop-color:#6F5D33"/>
		<stop  offset="0.5651" style="stop-color:#795033"/>
		<stop  offset="0.6732" style="stop-color:#7C4C33"/>
	</linearGradient>
	<path class="st9" d="M22.1,77.8c0.7,0.5,14.1-23.2,40.4-40c42.8-27.4,93.1-19.3,97.1-18.6c69.3,12.1,98.6,71.9,100.6,76.1
		c17,36.2,11.9,70.3,7,88.4c-4.5,16.6-18.8,56.6-61.8,81.1c-7.5,4.3-56.1,31.1-113.5,11.2c-31-10.8-51-30.4-62.8-46.2
		c-7.9-10.6-12.2-19.4-13.6-22.5c2.2,5.4,5.5,12.7,10.7,20.7c8.6,13.3,17.8,21.5,23.5,26.5c7,6.2,20.4,17.9,41.7,26.8
		c8.7,3.6,27.3,10.4,52,11.1c27.8,0.8,49.6-6.4,61.9-11.6c52.1-22.1,72.3-67.2,76.3-76.6c2.9-6.9,8.9-22.7,10.4-43.9
		c1.1-16.2,0.1-43.9-14.9-73.3c-7.7-15-28.7-49.4-72.8-67.8C171.3,5.5,141,7.1,124.4,9.6c-11.1,1.6-40,7.2-67.3,28.1
		C33.4,55.8,21.5,77.3,22.1,77.8z"/>
	<linearGradient id="SVGID_9_" gradientUnits="userSpaceOnUse" x1="10.8757" y1="150.807" x2="236.3836" y2="150.807">
		<stop  offset="0" style="stop-color:#B0E688"/>
		<stop  offset="0.2402" style="stop-color:#4C8933"/>
		<stop  offset="0.3359" style="stop-color:#5E7233"/>
		<stop  offset="0.4516" style="stop-color:#6F5D33"/>
		<stop  offset="0.5651" style="stop-color:#795033"/>
		<stop  offset="0.6732" style="stop-color:#7C4C33"/>
	</linearGradient>
	<path class="st10" d="M100.4,188.6c-5.4,1.4-10.8,2.8-16.2,4.2c-2.7-4.2-5.5-9-8.3-14.4c-2.4-4.7-4.5-9.3-6.3-13.6
		c-4.5,0.9-9.3,1.7-14.5,2.1c-9.1,0.8-17.4,0.5-24.6-0.3c0.4,1.9,0.8,3.7,1.2,5.6c2.6,10.8,6.2,20.4,10.2,28.8c2.8,0,5.5,0,8.3,0
		c5-0.6,11.9-1.4,20-2.8c13.1-2.2,35.9-6.3,62.2-16.7c15.6-6.2,37.1-16.5,60-33.8c-2.9,3.5-6.1,7.1-9.6,10.7
		c-11.1,11.4-22.6,19.9-32.8,26.3c1.6,1.8,3.2,3.6,5,5.3c6.8,6.9,13.7,12.4,20.3,16.9c-3.4,1.8-6.9,3.6-10.3,5.4
		c-3-1.8-6.1-3.9-9.2-6.2c-7.1-5.2-12.9-10.6-17.5-15.5c-1.7,1.1-3.5,2.2-5.3,3.3c-7.9,4.7-15.6,8.4-22.9,11.4
		c4.1,4.2,8.9,8.5,14.3,12.8c6.1,4.7,11.9,8.4,17.1,11.3c-6.2,3-12.3,5.9-18.5,8.9c-4.2-2.2-8.9-5.2-13.8-9
		c-7.3-5.8-13.1-12-17.4-17.5c-1.7,0.5-3.4,1-5.1,1.5c-10.6,3.1-20.8,5.3-30.6,6.8c1.7,2.1,3.5,4.3,5.4,6.5
		c10.7,11.7,22.7,19.4,33,24.4c1.1-0.1,2.8-0.3,5-0.7c5.1-1,8.6-2.7,10.1-3.4c23.4-10.9,23.8-9.9,37.3-17.6
		c12.2-6.9,23.3-13.2,35.8-23.4c10.2-8.3,24.5-21.8,37.8-42c-2.1,5.1-4.6,10.7-7.9,16.4c-7.9,14.1-17.3,24.8-25.3,32.6
		c1.3,0.8,2.6,1.6,4,2.3c12.3,6.7,25,8.8,35.3,9.1c-3.4,0.5-7.1,0.9-11.1,1c-14,0.4-25.6-2.8-33.6-5.9c-0.9,0.8-1.9,1.5-2.9,2.3
		c-6.6,5.3-13.1,10.7-19.3,16.1c2.8,1.4,5.9,2.7,9.2,3.9c12.4,4.6,23.9,6.4,33.3,6.9c-2.9,0.5-5.8,0.9-8.8,1.1
		c-17.1,1.7-32.8,0.2-46.5-2.9c-1.5,0.9-3,1.9-4.6,2.8c-6.5,3.9-12.9,7.3-19,10.2l1.7,1.7c2.4,0.6,5.9,1.3,10.1,1.9
		c29.6,4,53.3-6,61.5-9.5c19.2-8.4,32.2-19.9,39.9-28.2c-2.1,3.3-5.4,7.9-10.1,12.8c-24.5,26.3-57.7,31.9-68.1,33.5
		c-31.6,4.9-56.6-3.1-65.2-6.2c-8.9-3.2-47.2-18.2-68.7-58.6C6.2,173.4,11,141.7,12.8,131c1.8-10.9,7.1-40.4,33-66.3
		c27.1-27.2,59.6-33.3,69.8-35c14.1-2.4,26.2-2.2,34.7-1.5c3.4,0.3,6.8,0.7,10.2,1c-11-1-27.1-0.9-45.3,4.2
		c-28.8,8.1-46.3,24.4-51.8,29.8c-12,11.9-18.8,24-22.6,32.1c5.3,0.5,12.5,1.2,21.1,1.5c7,0.3,26.2,0.9,45.3-1.4
		c13.9-1.7,36.8-6.2,64-19.2c-4.2,3.3-9,6.6-14.4,9.8c-12.9,7.8-25.3,12.6-35.7,15.7c-0.3,3.7-0.5,7.8-0.3,12.2
		c0.3,8.4,1.8,15.7,3.4,21.6l-12.6,3.1c-0.8-2.8-1.5-5.9-2.1-9.3c-1.4-9.2-0.8-17.2,0.2-23.3c-0.6,0.1-2.8,0.4-3.4,0.5
		c-10.9,1.5-21.9,2.9-32.8,4.3c0.1,3.4,0.4,7.2,0.9,11.2c1,7.9,2.6,14.6,4.2,20l-14.2,1.3c-1-3.7-2.1-8.9-2.5-15.1
		c-0.4-6.1-0.1-11.3,0.4-15.2c-9.5-0.3-19-0.6-28.4-0.9c-0.4,1.9-0.8,3.8-1.2,5.8c-1.8,10-2.8,19.5-3.1,28.4c4.1,0.3,9.9,0.7,17,0.9
		c18.7,0.6,48.3,1.2,82-7.8c13.9-3.7,33.4-10.4,55-23c-5.2,4.4-11,8.8-17.6,13.2c-13.3,8.9-26.1,15.2-37.3,19.7
		c0.4,1.3,1.1,3.1,2.1,5.3c1.5,3.4,3.1,6,4.5,8.3c2.3,3.7,3.4,5.6,4.2,6.7c1.6,2.3,2.7,3.6,2.4,4.7c-0.2,0.7-0.8,0.8-2.4,1.4
		c0,0-2.3,1-5.3,2.7c-2.6,1.5-3.3,2.4-4.3,1.9c-0.7-0.3-1-1-1.7-2.2c-1-2-2.3-3.8-3.2-5.8c-2.8-6.1-3.8-6.3-7.2-13.4
		c-1-2.1-1.7-3.8-2.1-4.9c-2.6,0.9-4.8,1.5-6.3,1.9c-0.8,0.2-9.7,2.8-15.2,3.6c-1.4,0.2-2.8,0.5-4.2,0.7c-0.4,0.1-1.8,0.2-2.6,0.4
		c-0.2,0.1-0.4,0.1-0.6,0.1c-0.4,0.1-0.5,0-0.9,0.1c-0.2,0.1-0.3,0.1-0.5,0.2c-0.1,0.1-0.3,0.3-0.3,0.3l0,0c0,0,0.2,0.4,0.3,0.7
		c0,0,0.1,0.3,0.3,0.6c3.4,7.1,6.1,12.1,6.1,12.1C93.6,177.9,96.3,182.6,100.4,188.6z"/>
	<linearGradient id="SVGID_10_" gradientUnits="userSpaceOnUse" x1="163.3937" y1="161.7923" x2="163.3937" y2="161.7923">
		<stop  offset="0" style="stop-color:#B0E688"/>
		<stop  offset="0.2402" style="stop-color:#4C8933"/>
		<stop  offset="0.3359" style="stop-color:#5E7233"/>
		<stop  offset="0.4516" style="stop-color:#6F5D33"/>
		<stop  offset="0.5651" style="stop-color:#795033"/>
		<stop  offset="0.6732" style="stop-color:#7C4C33"/>
	</linearGradient>
	<path class="st11" d="M163.4,161.8"/>
	<linearGradient id="SVGID_11_" gradientUnits="userSpaceOnUse" x1="67.6537" y1="69.1373" x2="93.6337" y2="69.1373">
		<stop  offset="0" style="stop-color:#B0E688"/>
		<stop  offset="0.2402" style="stop-color:#4C8933"/>
		<stop  offset="0.3359" style="stop-color:#5E7233"/>
		<stop  offset="0.4516" style="stop-color:#6F5D33"/>
		<stop  offset="0.5651" style="stop-color:#795033"/>
		<stop  offset="0.6732" style="stop-color:#7C4C33"/>
	</linearGradient>
	<path class="st12" d="M67.7,90.5c2-5.7,4.8-12.4,8.7-19.4c5.9-10.8,12.3-18.4,17.3-23.5c-2.1,3.3-4.3,7-6.4,11.1
		c-6,11.6-9.7,22.8-12.1,32.1C72.6,90.7,70.1,90.6,67.7,90.5z"/>
	<linearGradient id="SVGID_12_" gradientUnits="userSpaceOnUse" x1="114.2636" y1="68.6323" x2="137.3136" y2="68.6323">
		<stop  offset="0" style="stop-color:#B0E688"/>
		<stop  offset="0.2402" style="stop-color:#4C8933"/>
		<stop  offset="0.3359" style="stop-color:#5E7233"/>
		<stop  offset="0.4516" style="stop-color:#6F5D33"/>
		<stop  offset="0.5651" style="stop-color:#795033"/>
		<stop  offset="0.6732" style="stop-color:#7C4C33"/>
	</linearGradient>
	<path class="st13" d="M114.3,88.9c0.7-3,1.7-6.1,2.9-9.3c5.2-13.9,13.2-24.4,20.2-31.6c-3,4.5-5.2,8.7-6.7,11.7
		c-2.7,5.4-5.8,11.9-7.7,21.1c-0.7,3.5-1,6.5-1.2,8.4C119.2,89.1,116.7,89,114.3,88.9z"/>
	<linearGradient id="SVGID_13_" gradientUnits="userSpaceOnUse" x1="259.8336" y1="264.9823" x2="259.8336" y2="264.9823">
		<stop  offset="0" style="stop-color:#B0E688"/>
		<stop  offset="0.2402" style="stop-color:#4C8933"/>
		<stop  offset="0.3359" style="stop-color:#5E7233"/>
		<stop  offset="0.4516" style="stop-color:#6F5D33"/>
		<stop  offset="0.5651" style="stop-color:#795033"/>
		<stop  offset="0.6732" style="stop-color:#7C4C33"/>
	</linearGradient>
	<path class="st14" d="M259.8,265"/>
</g>
<linearGradient id="SVGID_14_" gradientUnits="userSpaceOnUse" x1="422.9089" y1="282.9145" x2="422.9089" y2="282.9145" gradientTransform="matrix(1 0 0 -1 0 296.8889)">
	<stop  offset="0" style="stop-color:#FFFFFF"/>
	<stop  offset="0.1357" style="stop-color:#999999;stop-opacity:0.5"/>
</linearGradient>
<path class="st15" d="M422.9,14"/>
<linearGradient id="SVGID_15_" gradientUnits="userSpaceOnUse" x1="395.0189" y1="56.1445" x2="395.0189" y2="56.1445" gradientTransform="matrix(1 0 0 -1 0 296.8889)">
	<stop  offset="0" style="stop-color:#FFFFFF"/>
	<stop  offset="1" style="stop-color:#000000"/>
</linearGradient>
<path class="st16" d="M395,240.7"/>
<g>
	<g>
		<path class="st17" d="M375.8,84.5c-4.6,0.5-6.1,1.2-6.3,4.5c-0.1,2.3-0.2,5.3-0.2,12v28.9h-2.7l-30.8-37.7v18
			c0,6.5,0.2,9.7,0.4,11.8c0.1,3.7,1.9,4.8,7.1,5.2v2h-17.5v-2c4.5-0.4,6.2-1.4,6.5-5c0.2-2.3,0.4-5.5,0.4-12.1V91.8
			c0-2-0.1-3.2-1.4-4.8c-1.4-1.8-2.9-2.2-6.4-2.6v-2h10.8l30.5,36.2V101c0-6.7-0.1-9.8-0.4-12c-0.2-3.2-1.9-4.2-7.6-4.6v-2h17.8
			V84.5z"/>
		<path class="st17" d="M422,129.3v-2c4.7-0.6,5.3-1.3,4.2-4c-0.9-2.8-2.4-6.4-3.9-10.9h-15.6c-1.2,3.2-2.2,6-3.2,9
			c-1.6,4.7-0.6,5.3,5.3,6v2h-16.6v-2c4.5-0.6,5.7-1.1,8.2-7.6l14.9-37.8l2.3-0.4c4.5,12.3,9.5,25.9,14,38.4c2.3,6.3,3,6.8,8.1,7.4
			v2H422z M414.8,90.9c-2.3,6.2-4.8,12.7-6.9,18.4h13.5L414.8,90.9z"/>
		<path class="st17" d="M483.3,93.4c-1.2-4.8-3.2-9.4-10-9.4c-5.6,0-7.6,4.1-7.6,7.8c0,5,3.2,7.5,9.1,10.6
			c8.6,4.5,12.4,7.8,12.4,14.6c0,7.6-6.6,13.3-15.8,13.3c-4.3,0-8.1-1.2-11-2.4c-0.6-2-1.4-6.9-1.9-10.8l2.2-0.6
			c1.4,4.8,4.6,11.1,12.1,11.1c5.2,0,8.4-3.6,8.4-8.3c0-5.5-3-7.8-9.3-11.2c-7.6-4.1-11.8-7.6-11.8-14.3c0-6.4,5.3-12.5,14.8-12.5
			c4,0,8,1.1,9.5,1.4c0.3,2.6,0.6,5.5,1.2,10.2L483.3,93.4z"/>
		<path class="st17" d="M535.5,93.4c-1.2-4.8-3.2-9.4-10-9.4c-5.6,0-7.6,4.1-7.6,7.8c0,5,3.2,7.5,9.1,10.6
			c8.6,4.5,12.4,7.8,12.4,14.6c0,7.6-6.6,13.3-15.8,13.3c-4.3,0-8.1-1.2-11-2.4c-0.6-2-1.4-6.9-1.9-10.8l2.2-0.6
			c1.4,4.8,4.6,11.1,12.1,11.1c5.2,0,8.4-3.6,8.4-8.3c0-5.5-3-7.8-9.3-11.2c-7.6-4.1-11.8-7.6-11.8-14.3c0-6.4,5.3-12.5,14.8-12.5
			c4,0,8,1.1,9.5,1.4c0.3,2.6,0.6,5.5,1.2,10.2L535.5,93.4z"/>
		<path class="st17" d="M600.1,117.8c-0.4,1.9-2.4,9.3-3.1,11.4h-35v-2c6.7-0.5,7.2-1.2,7.2-7.1V91.8c0-6.4-0.8-6.8-6.2-7.3v-2h22
			c6.8,0,9.6-0.1,10.4-0.1c0.1,1.8,0.4,7.2,0.6,11l-2.2,0.4c-0.6-2.4-1.4-4-2.2-5.5c-1.2-2.4-2.8-2.9-7.1-2.9h-6.8
			c-2.2,0-2.4,0.2-2.4,2.3v15.9h8c5.4,0,5.8-1.1,6.6-6h2.2v14.8h-2.2c-0.9-5.2-1.5-5.9-6.7-5.9h-7.9v14.3c0,5,1.6,5.5,5.2,5.5h6.7
			c4.4,0,5.1-0.6,6.7-2.5c1.4-1.5,2.9-4.5,3.9-6.6L600.1,117.8z"/>
		<path class="st17" d="M664.6,129.8c-0.9,0-1.7-0.1-2.7-0.1c-5.3-0.4-8.1-1.7-11.2-6.2c-2.7-3.7-5.3-8.2-7.6-11.9
			c-1.4-2.3-2.4-2.7-6-2.7h-2.5v11.3c0,6.1,0.8,6.5,6.6,7.1v2h-19.2v-2c6-0.6,6.5-0.9,6.5-7.1V91.5c0-6.1-0.8-6.3-6.5-7v-2h18.4
			c5.3,0,8.8,0.6,11.5,2.4c3,1.9,4.9,5.1,4.9,9.5c0,6.2-4,10.1-9.3,12.4c1.3,2.2,4.4,7.1,6.6,10.3c2.7,3.8,4,5.6,5.7,7.4
			c1.9,2.1,3.6,2.9,5.3,3.3L664.6,129.8z M638,106.4c3.7,0,6.1-0.6,7.9-2.1c2.8-2.1,4-5,4-8.9c0-7.7-5.1-10.5-10.7-10.5
			c-2.1,0-3.3,0.3-3.8,0.7c-0.6,0.5-0.9,1.2-0.9,3.1v17.6H638z"/>
		<path class="st17" d="M386.5,196c-4.5,0.6-4.8,1-4.8,5.3v6c0,2.5,0.1,4.9,0.4,6.8c-4.5,1-10.3,2.6-16.3,2.6
			c-16.3,0-26.3-10.2-26.3-24.6c0-15.2,12.4-24.3,26.8-24.3c7.3,0,12.7,1.4,15,1.8c0.1,2.7,0.5,7.1,1.1,11.6l-2.2,0.4
			c-1.7-6.1-3.8-8.7-8.4-10.2c-1.7-0.6-4.6-0.9-6.7-0.9c-11,0-18.1,7.6-18.1,20.7c0,11.4,5.9,22.8,19.9,22.8c2.4,0,4.7-0.5,6.1-1.2
			c1.5-0.9,2.4-1.7,2.4-4.6v-5.9c0-5.3-0.6-5.8-7.5-6.3v-2.1h18.5V196z"/>
		<path class="st17" d="M451.8,216.2c-0.9,0-1.7-0.1-2.7-0.1c-5.3-0.4-8.1-1.7-11.2-6.2c-2.7-3.7-5.3-8.2-7.6-11.9
			c-1.4-2.3-2.4-2.7-6-2.7h-2.5v11.3c0,6.1,0.8,6.5,6.6,7.1v2h-19.2v-2c6-0.6,6.5-0.9,6.5-7.1v-28.7c0-6.1-0.8-6.3-6.5-7v-2h18.4
			c5.3,0,8.8,0.6,11.5,2.4c3,1.9,4.9,5.1,4.9,9.5c0,6.2-4,10.1-9.3,12.4c1.3,2.2,4.4,7.1,6.6,10.3c2.7,3.8,4,5.6,5.7,7.4
			c1.9,2.1,3.6,2.9,5.3,3.3L451.8,216.2z M425.3,192.8c3.7,0,6.1-0.6,7.9-2.1c2.8-2.1,4-5,4-8.9c0-7.7-5.1-10.5-10.7-10.5
			c-2.1,0-3.3,0.3-3.8,0.7c-0.6,0.5-0.9,1.2-0.9,3.1v17.6H425.3z"/>
		<path class="st17" d="M494.5,167.9c12.3,0,23.3,9.4,23.3,23.8c0,15.5-10.5,25.1-23.8,25.1c-13.8,0-23.9-10.5-23.9-24
			C470.1,179.8,479.3,167.9,494.5,167.9z M493,170.5c-8.1,0-15.4,6.8-15.4,20.2c0,13.4,7.3,23.3,17.6,23.3c8.7,0,15.3-6.5,15.3-20.4
			C510.5,178.5,502.5,170.5,493,170.5z"/>
		<path class="st17" d="M590.4,170.9c-4.5,0.3-6.2,1.4-6.3,4.8c-0.1,1.7-0.2,4.7-0.2,11.3v7.8c0,7.3-0.9,13-5,17.4
			c-3.4,3.5-8.3,4.6-13.2,4.6c-4.2,0-8.6-0.9-11.8-3.3c-4.3-3.3-6.4-8.3-6.4-16.7v-18.4c0-6.5-0.6-6.9-6.3-7.4v-2h18.9v2
			c-5.8,0.4-6.3,0.9-6.3,7.4v18c0,10.5,5,16.3,13.6,16.3c10.2,0,13.5-6.3,13.5-18.3v-7.3c0-6.6-0.2-9.4-0.4-11.3
			c-0.2-3.2-1.9-4.5-7.2-4.8v-2h17.3V170.9z"/>
		<path class="st17" d="M629.8,168.9c5.1,0,9.2,0.9,12.2,3.1c2.8,2.1,4.8,5.5,4.8,10.2c0,10.5-9,14.8-15.8,14.8
			c-0.8,0-1.5-0.1-1.9-0.1l-5-1.3v11.2c0,6,0.5,6.2,7.1,6.9v2h-19.9v-2c6.2-0.6,6.5-1.1,6.5-7.1V178c0-6.4-0.8-6.6-6.5-7.1v-2H629.8
			z M623.9,193c0.9,0.4,2.8,0.9,5.3,0.9c4.8,0,10.8-2.4,10.8-11.5c0-7.9-5.2-11.1-11.2-11.1c-2.1,0-3.6,0.4-4,0.9
			c-0.6,0.5-0.8,1.4-0.8,3.3V193z"/>
	</g>
</g>
</svg>
